<svg width="30" height="30" viewBox="0 0 30 30" fill="none" xmlns="http://www.w3.org/2000/svg">
<g id="Frame">
<path id="Vector" d="M8.75 5V25H21.25V5H8.75ZM7.5 2.5H22.5C23.1904 2.5 23.75 3.05965 23.75 3.75V26.25C23.75 26.9404 23.1904 27.5 22.5 27.5H7.5C6.80965 27.5 6.25 26.9404 6.25 26.25V3.75C6.25 3.05965 6.80965 2.5 7.5 2.5ZM15 21.25C15.6904 21.25 16.25 21.8096 16.25 22.5C16.25 23.1904 15.6904 23.75 15 23.75C14.3096 23.75 13.75 23.1904 13.75 22.5C13.75 21.8096 14.3096 21.25 15 21.25Z" fill="#263238" fill-opacity="0.75"/>
</g>
</svg>
