<svg width="41" height="40" viewBox="0 0 41 40" fill="none" xmlns="http://www.w3.org/2000/svg">
<g id="Frame">
<path id="Vector" d="M4.03735 33.2368H37.1838V36.5514H4.03735V33.2368ZM7.35199 19.9782H10.6666V31.5795H7.35199V19.9782ZM15.6386 19.9782H18.9532V31.5795H15.6386V19.9782ZM22.2679 19.9782H25.5825V31.5795H22.2679V19.9782ZM30.5545 19.9782H33.8691V31.5795H30.5545V19.9782ZM4.03735 11.6916L20.6106 3.40503L37.1838 11.6916V18.3209H4.03735V11.6916ZM7.35199 13.7402V15.0063H33.8691V13.7402L20.6106 7.11091L7.35199 13.7402ZM20.6106 13.349C19.6952 13.349 18.9532 12.6069 18.9532 11.6916C18.9532 10.7763 19.6952 10.0343 20.6106 10.0343C21.5259 10.0343 22.2679 10.7763 22.2679 11.6916C22.2679 12.6069 21.5259 13.349 20.6106 13.349Z" fill="#049DFE"/>
</g>
</svg>
