<svg width="40" height="41" viewBox="0 0 40 41" fill="none" xmlns="http://www.w3.org/2000/svg">
<g id="Frame">
<path id="Vector" d="M17.6696 11.7092C17.182 11.2259 16.3949 11.2294 15.9117 11.717C15.4284 12.2046 15.4319 12.9916 15.9195 13.4748L18.8413 16.3707C20.0271 17.546 20.8405 18.3548 21.3909 19.0401C21.9256 19.7059 22.109 20.1335 22.1578 20.5165C22.1884 20.7569 22.1884 21.0002 22.1578 21.2407C22.109 21.6237 21.9256 22.0513 21.3909 22.7171C20.8405 23.4024 20.0271 24.2113 18.8413 25.3865L15.9195 28.2823C15.4319 28.7656 15.4284 29.5527 15.9117 30.0403C16.3949 30.5278 17.182 30.5313 17.6696 30.0481L20.644 27.1C21.7643 25.9898 22.6798 25.0822 23.3292 24.2736C24.0045 23.4329 24.4933 22.5795 24.6239 21.5551C24.681 21.1058 24.681 20.6514 24.6239 20.2021C24.4933 19.1777 24.0045 18.3243 23.3292 17.4835C22.6798 16.6749 21.7643 15.7675 20.644 14.6572L17.6696 11.7092Z" fill="black"/>
</g>
</svg>
