<svg width="27" height="27" viewBox="0 0 27 27" fill="none" xmlns="http://www.w3.org/2000/svg">
<g id="Frame">
<path id="Vector" d="M22.9659 4.13504C22.0535 3.57704 20.9375 3.53429 19.9846 4.02367L17.4972 5.30055C17.1091 5.5008 16.6456 5.5008 16.2564 5.30055L11.519 2.86818C11.087 2.64655 10.6133 2.53518 10.1397 2.53405C10.1352 2.53405 10.1307 2.53186 10.1262 2.53186C10.1217 2.53186 10.1172 2.53405 10.1127 2.53405C9.6391 2.5363 9.16658 2.64655 8.73346 2.86818L4.8556 4.85945C3.42235 5.5952 2.53247 7.0712 2.53247 8.7092V20.1584C2.53247 21.2777 3.09497 22.2891 4.0366 22.864C4.9501 23.4231 6.0661 23.4647 7.01785 22.9754L9.50521 21.6985C9.89333 21.4982 10.3568 21.4982 10.7461 21.6985L15.4835 24.1307C15.9132 24.3524 16.3846 24.4615 16.856 24.4637C16.8627 24.4637 16.8684 24.4682 16.8751 24.4682C16.8819 24.4682 16.8875 24.4649 16.8942 24.4637C17.3656 24.4604 17.837 24.3512 18.2667 24.1307L22.1446 22.1394C23.5779 21.4036 24.4677 19.9276 24.4677 18.2896V6.84055C24.47 5.7223 23.9075 4.70992 22.9659 4.13504ZM6.24722 21.4757C5.8141 21.6974 5.33032 21.6794 4.91632 21.4262C4.47982 21.1607 4.21997 20.6871 4.21997 20.1606V8.71153C4.21997 7.70803 4.75885 6.80802 5.62735 6.36252L9.28247 4.48605V19.9975C9.09572 20.0515 8.9101 20.11 8.7346 20.2011L6.24722 21.4757ZM11.519 20.1989C11.3435 20.1089 11.1567 20.0491 10.97 19.9951V4.48371L15.4835 6.80128C15.659 6.89128 15.8457 6.9508 16.0325 7.0048V22.5164L11.519 20.1989ZM22.7825 18.2909C22.7825 19.2944 22.2436 20.1943 21.3751 20.6398L17.72 22.5164V7.0048C17.9067 6.9508 18.0924 6.89241 18.2679 6.80128L20.7541 5.52439C21.1861 5.30277 21.671 5.32071 22.085 5.57384C22.5215 5.83934 22.7814 6.31296 22.7814 6.83946V18.2909H22.7825Z" fill="#049DFE"/>
</g>
</svg>
