<svg width="30" height="30" viewBox="0 0 30 30" fill="none" xmlns="http://www.w3.org/2000/svg">
<g id="Frame">
<path id="Vector" d="M25.1041 18.9998L26.6068 19.9014C26.9026 20.079 26.9986 20.4629 26.8211 20.7589C26.7683 20.8468 26.6946 20.9204 26.6068 20.9733L15.643 27.5514C15.2471 27.7889 14.7526 27.7889 14.3568 27.5514L3.39314 20.9733C3.09715 20.7956 3.00116 20.4118 3.17876 20.1158C3.23154 20.0278 3.30516 19.9541 3.39314 19.9014L4.89575 18.9998L14.9999 25.0623L25.1041 18.9998ZM25.1041 13.1248L26.6068 14.0264C26.9026 14.204 26.9986 14.5879 26.8211 14.8839C26.7683 14.9718 26.6946 15.0454 26.6068 15.0983L14.9999 22.0623L3.39314 15.0983C3.09715 14.9206 3.00116 14.5368 3.17876 14.2408C3.23154 14.1528 3.30516 14.0791 3.39314 14.0264L4.89575 13.1248L14.9999 19.1873L25.1041 13.1248ZM15.643 1.63565L26.6068 8.21385C26.9026 8.39144 26.9986 8.77535 26.8211 9.07134C26.7683 9.15932 26.6946 9.23294 26.6068 9.28572L14.9999 16.2498L3.39314 9.28572C3.09715 9.10813 3.00116 8.72422 3.17876 8.42823C3.23154 8.34025 3.30516 8.26663 3.39314 8.21385L14.3568 1.63565C14.7526 1.39814 15.2471 1.39814 15.643 1.63565ZM14.9999 4.16527L7.35904 8.74979L14.9999 13.3343L22.6408 8.74979L14.9999 4.16527Z" fill="#263238" fill-opacity="0.75"/>
</g>
</svg>
