<svg width="15" height="15" viewBox="0 0 15 15" fill="none" xmlns="http://www.w3.org/2000/svg">
<g id="Frame">
<path id="Vector" d="M4.37488 3.75V1.875C4.37488 1.52982 4.6547 1.25 4.99988 1.25H12.4999C12.8451 1.25 13.1249 1.52982 13.1249 1.875V10.625C13.1249 10.9702 12.8451 11.25 12.4999 11.25H10.6249V13.1244C10.6249 13.4699 10.3437 13.75 9.99562 13.75H2.50416C2.15662 13.75 1.875 13.4721 1.875 13.1244L1.87662 4.37554C1.87669 4.03007 2.1579 3.75 2.50589 3.75H4.37488ZM3.12651 5L3.12512 12.5H9.37488V5H3.12651ZM5.62487 3.75H10.6249V10H11.8749V2.5H5.62487V3.75Z" fill="black"/>
</g>
</svg>
