<svg width="113" height="113" viewBox="0 0 113 113" fill="none" xmlns="http://www.w3.org/2000/svg">
<g id="Frame" clip-path="url(#clip0_186_6951)">
<path id="Vector" d="M41.1335 69.4913L47.5227 65.8903C53.2086 62.6862 59.8282 61.7134 66.0771 63.1645L74.6854 65.1635C77.4222 65.799 79.671 62.8157 78.3065 60.3597L74.1486 52.8756C70.9529 47.1236 70.1042 40.3005 71.7777 33.816L73.7156 26.3069C74.4347 23.5203 71.5019 21.3096 69.0211 22.7682L62.3357 26.6986C56.5626 30.0928 49.7695 31.1555 43.3599 29.6671L35.0204 27.7306C32.2835 27.095 30.0347 30.0784 31.3993 32.5344L35.6912 40.2596C38.8068 45.8675 39.6943 52.4991 38.1794 58.8473L36.4769 65.9812C35.8227 68.723 38.6776 70.8751 41.1335 69.4913ZM54.7446 100.245L56.5422 99.2312C59.747 97.4238 63.4795 96.8745 67.0038 97.6917L69.7142 98.3199C71.1801 98.6599 72.3831 97.064 71.6526 95.7484L70.3781 93.4519C68.5768 90.2073 68.099 86.3601 69.0432 82.705L69.597 80.5627C69.9826 79.0696 68.4099 77.8842 67.0807 78.666L65.1738 79.7882C61.9202 81.7025 58.0901 82.3025 54.4749 81.4641L51.916 80.871C50.4504 80.5312 49.2474 82.1271 49.9776 83.4425L51.3278 85.8752C53.0841 89.0385 53.5834 92.7777 52.7283 96.3563L52.2489 98.3637C51.8977 99.8329 53.4287 100.987 54.7446 100.245Z" fill="white" fill-opacity="0.28"/>
</g>
<defs>
<clipPath id="clip0_186_6951">
<rect width="80.2483" height="80.2483" fill="white" transform="translate(48.6094 0.612305) rotate(37.009)"/>
</clipPath>
</defs>
</svg>
