<svg width="30" height="30" viewBox="0 0 30 30" fill="none" xmlns="http://www.w3.org/2000/svg">
<g id="Home Button">
<path id="Vector" fill-rule="evenodd" clip-rule="evenodd" d="M14.5171 4.54938C14.831 4.44742 15.169 4.44742 15.4829 4.54938C15.6036 4.58864 15.762 4.67296 16.0365 4.90601C16.3195 5.14617 16.6595 5.48526 17.1655 5.99121L22.8125 11.6382V20.2498C22.8125 21.3154 22.8117 22.0582 22.7645 22.6366C22.7181 23.2038 22.6317 23.5298 22.506 23.7767C22.2362 24.3059 21.806 24.7362 21.2769 25.0058C21.03 25.1316 20.704 25.2181 20.1366 25.2644C19.5584 25.3117 18.8156 25.3123 17.75 25.3123H12.25C11.1844 25.3123 10.4416 25.3117 9.86335 25.2644C9.296 25.2181 8.97005 25.1316 8.72315 25.0058C8.19395 24.7362 7.76368 24.3059 7.49405 23.7767C7.36825 23.5298 7.28182 23.2038 7.23547 22.6366C7.18822 22.0582 7.1875 21.3154 7.1875 20.2498V11.6382L12.8345 5.99121C13.3405 5.48524 13.6806 5.14617 13.9635 4.90601C14.238 4.67296 14.3964 4.58864 14.5171 4.54938ZM5.58642 10.5876L1.83708 14.3369C1.47097 14.7031 1.47097 15.2967 1.83708 15.6628C2.2032 16.0289 2.7968 16.0289 3.16291 15.6628L5.3125 13.5132V20.2498V20.2899C5.31248 21.3061 5.31248 22.1256 5.3667 22.7892C5.42253 23.4724 5.54047 24.0727 5.82341 24.6279C6.27281 25.5099 6.98991 26.2271 7.87192 26.6764C8.42718 26.9594 9.02737 27.0773 9.71066 27.1332C10.3743 27.1874 11.1938 27.1874 12.2098 27.1873H12.25H17.75H17.7901C18.8062 27.1874 19.6257 27.1874 20.2894 27.1332C20.9726 27.0773 21.5727 26.9594 22.1281 26.6764C23.0101 26.2271 23.7272 25.5099 24.1766 24.6279C24.4595 24.0727 24.5775 23.4724 24.6332 22.7892C24.6875 22.1256 24.6875 21.3061 24.6875 20.2901V20.2498V13.5132L26.8371 15.6628C27.2032 16.0289 27.7967 16.0289 28.1629 15.6628C28.529 15.2967 28.529 14.7031 28.1629 14.3369L18.4914 4.66538L18.4644 4.63848C17.9924 4.16634 17.5982 3.77226 17.25 3.47662C16.8867 3.16828 16.5122 2.91236 16.0622 2.76614C15.3719 2.54182 14.6281 2.54182 13.9377 2.76614C13.4877 2.91236 13.1132 3.16828 12.75 3.47662C12.4017 3.77226 12.0077 4.16634 11.5356 4.63847L11.5356 4.63848L11.5087 4.66538L5.58775 10.5863C5.58731 10.5867 5.58686 10.5872 5.58642 10.5876Z" fill="#049DFE"/>
</g>
</svg>
