<svg width="30" height="30" viewBox="0 0 30 30" fill="none" xmlns="http://www.w3.org/2000/svg">
<g id="Frame">
<path id="Vector" d="M6.2561 11.2537C6.94647 11.2537 7.5061 11.8133 7.5061 12.5036C9.54957 12.5036 11.4294 13.2041 12.9186 14.3781L15.6311 14.3786C17.2969 14.3786 18.7935 15.1027 19.8235 16.2534L23.7561 16.2536C26.2465 16.2536 28.3966 17.7102 29.4013 19.8179C26.4453 23.7188 21.6585 26.2536 16.2561 26.2536C12.7678 26.2536 9.81833 25.4996 7.43 24.1812C7.25697 24.6606 6.79659 25.0036 6.2561 25.0036H2.5061C1.81575 25.0036 1.2561 24.444 1.2561 23.7536V12.5036C1.2561 11.8133 1.81575 11.2537 2.5061 11.2537H6.2561ZM7.50737 15.0036L7.5061 21.2811L7.5628 21.3218C9.80508 22.8972 12.7288 23.7536 16.2561 23.7536C20.0111 23.7536 23.5044 22.3091 26.05 19.8419L26.2161 19.6749L26.0671 19.5494C25.4871 19.0956 24.7756 18.8141 24.0124 18.7624L23.7561 18.7536L21.1168 18.7537C21.208 19.1558 21.2561 19.5741 21.2561 20.0036V21.2536H10.0061V18.7536L18.4936 18.7524L18.4506 18.6544C17.975 17.6624 16.9913 16.9602 15.8366 16.8853L15.6311 16.8786L11.9693 16.8785C10.8353 15.7218 9.25515 15.004 7.50737 15.0036ZM5.0061 13.7536H3.7561V22.5036H5.0061V13.7536ZM22.5061 6.25366C24.5771 6.25366 26.2561 7.9326 26.2561 10.0037C26.2561 12.0747 24.5771 13.7536 22.5061 13.7536C20.435 13.7536 18.7561 12.0747 18.7561 10.0037C18.7561 7.9326 20.435 6.25366 22.5061 6.25366ZM22.5061 8.75366C21.8158 8.75366 21.2561 9.3133 21.2561 10.0037C21.2561 10.694 21.8158 11.2537 22.5061 11.2537C23.1965 11.2537 23.7561 10.694 23.7561 10.0037C23.7561 9.3133 23.1965 8.75366 22.5061 8.75366ZM13.7561 2.50366C15.8271 2.50366 17.5061 4.1826 17.5061 6.25366C17.5061 8.32472 15.8271 10.0037 13.7561 10.0037C11.685 10.0037 10.0061 8.32472 10.0061 6.25366C10.0061 4.1826 11.685 2.50366 13.7561 2.50366ZM13.7561 5.00366C13.0658 5.00366 12.5061 5.5633 12.5061 6.25366C12.5061 6.94401 13.0658 7.50366 13.7561 7.50366C14.4465 7.50366 15.0061 6.94401 15.0061 6.25366C15.0061 5.5633 14.4465 5.00366 13.7561 5.00366Z" fill="#263238" fill-opacity="0.75"/>
</g>
</svg>
