<svg width="40" height="40" viewBox="0 0 40 40" fill="none" xmlns="http://www.w3.org/2000/svg">
<g id="More Button">
<path id="Vector" fill-rule="evenodd" clip-rule="evenodd" d="M4.58325 20C4.58325 21.1506 5.51599 22.0833 6.66659 22.0833C7.81719 22.0833 8.74992 21.1506 8.74992 20C8.74992 18.8493 7.81719 17.9166 6.66659 17.9166C5.51599 17.9166 4.58325 18.8493 4.58325 20ZM6.66659 24.5833C4.13529 24.5833 2.08325 22.5313 2.08325 20C2.08325 17.4686 4.13529 15.4166 6.66659 15.4166C9.19789 15.4166 11.2499 17.4686 11.2499 20C11.2499 22.5313 9.19789 24.5833 6.66659 24.5833Z" fill="#263238" fill-opacity="0.75"/>
<path id="Vector_2" fill-rule="evenodd" clip-rule="evenodd" d="M17.9167 20C17.9167 21.1506 18.8494 22.0833 20.0001 22.0833C21.1507 22.0833 22.0834 21.1506 22.0834 20C22.0834 18.8493 21.1507 17.9166 20.0001 17.9166C18.8494 17.9166 17.9167 18.8493 17.9167 20ZM20.0001 24.5833C17.4687 24.5833 15.4167 22.5313 15.4167 20C15.4167 17.4686 17.4687 15.4166 20.0001 15.4166C22.5314 15.4166 24.5834 17.4686 24.5834 20C24.5834 22.5313 22.5314 24.5833 20.0001 24.5833Z" fill="#263238" fill-opacity="0.75"/>
<path id="Vector_3" fill-rule="evenodd" clip-rule="evenodd" d="M31.25 20C31.25 21.1506 32.1827 22.0833 33.3333 22.0833C34.484 22.0833 35.4167 21.1506 35.4167 20C35.4167 18.8493 34.484 17.9166 33.3333 17.9166C32.1827 17.9166 31.25 18.8493 31.25 20ZM33.3333 24.5833C30.802 24.5833 28.75 22.5313 28.75 20C28.75 17.4686 30.802 15.4166 33.3333 15.4166C35.8647 15.4166 37.9167 17.4686 37.9167 20C37.9167 22.5313 35.8647 24.5833 33.3333 24.5833Z" fill="#263238" fill-opacity="0.75"/>
</g>
</svg>
